<mxfile host="app.diagrams.net" modified="2024-07-08T17:46:28.268Z" agent="Mozilla/5.0 (Windows NT 10.0; Win64; x64; rv:127.0) Gecko/20100101 Firefox/127.0" version="24.0.7" etag="uQ0f8o0-yNd5BE2CzMtv" type="github">
  <diagram name="Страница — 1" id="o1rE_PbdWgksbnsuyZ00">
    <mxGraphModel>
      <root>
        <mxCell id="0" />
        <mxCell id="1" parent="0" />
      </root>
    </mxGraphModel>
  </diagram>
</mxfile>
